<mxfile host="app.diagrams.net" modified="2024-03-17T18:18:16.147Z" agent="Mozilla/5.0 (X11; Linux x86_64) AppleWebKit/537.36 (KHTML, like Gecko) Chrome/120.0.0.0 Safari/537.36" etag="bz6jMT_T_mtyeAvf-itC" version="24.0.7" type="device">
  <diagram name="PÃ¡gina-1" id="s8q09ndFcynsteeKFCuB">
    <mxGraphModel dx="1434" dy="786" grid="1" gridSize="10" guides="1" tooltips="1" connect="1" arrows="1" fold="1" page="1" pageScale="1" pageWidth="827" pageHeight="1169" math="0" shadow="0">
      <root>
        <mxCell id="0" />
        <mxCell id="1" parent="0" />
        <mxCell id="oW3nw7g2kxoqtmV7_x5X-3" value="VPC" style="sketch=0;outlineConnect=0;html=1;whiteSpace=wrap;fontSize=12;fontStyle=0;shape=mxgraph.aws4.group;grIcon=mxgraph.aws4.group_vpc;strokeColor=#82b366;fillColor=#d5e8d4;verticalAlign=top;align=left;spacingLeft=30;dashed=0;" vertex="1" parent="1">
          <mxGeometry x="50" y="130" width="1110" height="610" as="geometry" />
        </mxCell>
        <mxCell id="oW3nw7g2kxoqtmV7_x5X-2" value="sa-east-1" style="sketch=0;outlineConnect=0;gradientColor=none;html=1;whiteSpace=wrap;fontSize=12;fontStyle=0;shape=mxgraph.aws4.group;grIcon=mxgraph.aws4.group_region;strokeColor=#879196;fillColor=none;verticalAlign=top;align=left;spacingLeft=30;fontColor=#879196;" vertex="1" parent="1">
          <mxGeometry x="20" y="100" width="1160" height="820" as="geometry" />
        </mxCell>
        <mxCell id="oW3nw7g2kxoqtmV7_x5X-5" value="Public subnet" style="points=[[0,0],[0.25,0],[0.5,0],[0.75,0],[1,0],[1,0.25],[1,0.5],[1,0.75],[1,1],[0.75,1],[0.5,1],[0.25,1],[0,1],[0,0.75],[0,0.5],[0,0.25]];outlineConnect=0;gradientColor=none;html=1;whiteSpace=wrap;fontSize=12;fontStyle=0;container=1;pointerEvents=0;collapsible=0;recursiveResize=0;shape=mxgraph.aws4.group;grIcon=mxgraph.aws4.group_security_group;grStroke=0;strokeColor=#7AA116;fillColor=#F2F6E8;verticalAlign=top;align=left;spacingLeft=30;fontColor=#248814;dashed=0;" vertex="1" parent="1">
          <mxGeometry x="60" y="170" width="1090" height="240" as="geometry" />
        </mxCell>
        <mxCell id="oW3nw7g2kxoqtmV7_x5X-25" value="&lt;b&gt;&lt;i&gt;API Gateway&lt;/i&gt;&lt;/b&gt;" style="text;html=1;align=center;verticalAlign=middle;whiteSpace=wrap;rounded=0;" vertex="1" parent="oW3nw7g2kxoqtmV7_x5X-5">
          <mxGeometry x="387.04999999999995" y="166.5" width="101.97" height="30" as="geometry" />
        </mxCell>
        <mxCell id="oW3nw7g2kxoqtmV7_x5X-24" style="edgeStyle=orthogonalEdgeStyle;rounded=0;orthogonalLoop=1;jettySize=auto;html=1;fillColor=#dae8fc;strokeColor=#6c8ebf;" edge="1" parent="1" source="oW3nw7g2kxoqtmV7_x5X-28" target="oW3nw7g2kxoqtmV7_x5X-7">
          <mxGeometry relative="1" as="geometry" />
        </mxCell>
        <mxCell id="oW3nw7g2kxoqtmV7_x5X-30" value="&lt;b&gt;&lt;i&gt;Load balancer&lt;/i&gt;&lt;/b&gt;" style="edgeLabel;html=1;align=center;verticalAlign=middle;resizable=0;points=[];" vertex="1" connectable="0" parent="oW3nw7g2kxoqtmV7_x5X-24">
          <mxGeometry x="-0.6681" y="2" relative="1" as="geometry">
            <mxPoint as="offset" />
          </mxGeometry>
        </mxCell>
        <mxCell id="oW3nw7g2kxoqtmV7_x5X-23" value="" style="outlineConnect=0;dashed=0;verticalLabelPosition=bottom;verticalAlign=top;align=center;html=1;shape=mxgraph.aws3.api_gateway;fillColor=#D9A741;gradientColor=none;" vertex="1" parent="1">
          <mxGeometry x="460" y="243.5" width="76.5" height="93" as="geometry" />
        </mxCell>
        <mxCell id="oW3nw7g2kxoqtmV7_x5X-4" value="Private subnet" style="points=[[0,0],[0.25,0],[0.5,0],[0.75,0],[1,0],[1,0.25],[1,0.5],[1,0.75],[1,1],[0.75,1],[0.5,1],[0.25,1],[0,1],[0,0.75],[0,0.5],[0,0.25]];outlineConnect=0;gradientColor=none;html=1;whiteSpace=wrap;fontSize=12;fontStyle=0;container=1;pointerEvents=0;collapsible=0;recursiveResize=0;shape=mxgraph.aws4.group;grIcon=mxgraph.aws4.group_security_group;grStroke=0;strokeColor=#00A4A6;fillColor=#E6F6F7;verticalAlign=top;align=left;spacingLeft=30;fontColor=#147EBA;dashed=0;" vertex="1" parent="1">
          <mxGeometry x="60" y="420" width="1090" height="310" as="geometry" />
        </mxCell>
        <mxCell id="oW3nw7g2kxoqtmV7_x5X-9" value="" style="rounded=0;whiteSpace=wrap;html=1;fillColor=#fff2cc;strokeColor=#d6b656;" vertex="1" parent="oW3nw7g2kxoqtmV7_x5X-4">
          <mxGeometry x="40" y="30" width="1030" height="260" as="geometry" />
        </mxCell>
        <mxCell id="oW3nw7g2kxoqtmV7_x5X-8" value="&lt;b&gt;EC2 Fargete&lt;/b&gt;" style="text;html=1;align=center;verticalAlign=middle;whiteSpace=wrap;rounded=0;" vertex="1" parent="oW3nw7g2kxoqtmV7_x5X-4">
          <mxGeometry x="76" y="34" width="100" height="30" as="geometry" />
        </mxCell>
        <mxCell id="oW3nw7g2kxoqtmV7_x5X-7" value="" style="outlineConnect=0;dashed=0;verticalLabelPosition=bottom;verticalAlign=top;align=center;html=1;shape=mxgraph.aws3.ec2;fillColor=#F58534;gradientColor=none;" vertex="1" parent="oW3nw7g2kxoqtmV7_x5X-4">
          <mxGeometry x="30" y="20" width="60" height="60" as="geometry" />
        </mxCell>
        <mxCell id="oW3nw7g2kxoqtmV7_x5X-11" value="" style="rounded=0;whiteSpace=wrap;html=1;fillColor=#d5e8d4;strokeColor=#82b366;" vertex="1" parent="oW3nw7g2kxoqtmV7_x5X-4">
          <mxGeometry x="100" y="70" width="960" height="210" as="geometry" />
        </mxCell>
        <mxCell id="oW3nw7g2kxoqtmV7_x5X-12" value="" style="outlineConnect=0;dashed=0;verticalLabelPosition=bottom;verticalAlign=top;align=center;html=1;shape=mxgraph.aws3.ecs;fillColor=#F58534;gradientColor=none;" vertex="1" parent="oW3nw7g2kxoqtmV7_x5X-4">
          <mxGeometry x="96" y="60" width="50" height="50" as="geometry" />
        </mxCell>
        <mxCell id="oW3nw7g2kxoqtmV7_x5X-13" value="&lt;b&gt;ECS&amp;nbsp;&lt;/b&gt;" style="text;html=1;align=center;verticalAlign=middle;whiteSpace=wrap;rounded=0;" vertex="1" parent="oW3nw7g2kxoqtmV7_x5X-4">
          <mxGeometry x="115" y="70" width="100" height="30" as="geometry" />
        </mxCell>
        <mxCell id="oW3nw7g2kxoqtmV7_x5X-14" value="" style="rounded=0;whiteSpace=wrap;html=1;fillColor=#dae8fc;strokeColor=#6c8ebf;" vertex="1" parent="oW3nw7g2kxoqtmV7_x5X-4">
          <mxGeometry x="146" y="105" width="904" height="165" as="geometry" />
        </mxCell>
        <mxCell id="oW3nw7g2kxoqtmV7_x5X-15" value="" style="sketch=0;outlineConnect=0;fontColor=#232F3E;gradientColor=none;fillColor=#ED7100;strokeColor=none;dashed=0;verticalLabelPosition=bottom;verticalAlign=top;align=center;html=1;fontSize=12;fontStyle=0;aspect=fixed;pointerEvents=1;shape=mxgraph.aws4.ecs_task;" vertex="1" parent="oW3nw7g2kxoqtmV7_x5X-4">
          <mxGeometry x="146.5" y="105" width="37" height="48" as="geometry" />
        </mxCell>
        <mxCell id="oW3nw7g2kxoqtmV7_x5X-16" value="" style="sketch=0;outlineConnect=0;fontColor=#232F3E;gradientColor=none;fillColor=#ED7100;strokeColor=none;dashed=0;verticalLabelPosition=bottom;verticalAlign=top;align=center;html=1;fontSize=12;fontStyle=0;aspect=fixed;pointerEvents=1;shape=mxgraph.aws4.ecs_task;" vertex="1" parent="oW3nw7g2kxoqtmV7_x5X-4">
          <mxGeometry x="190" y="105" width="37" height="48" as="geometry" />
        </mxCell>
        <mxCell id="oW3nw7g2kxoqtmV7_x5X-17" value="&lt;b&gt;&lt;i&gt;Task&amp;nbsp;&lt;/i&gt;&lt;/b&gt;&lt;div&gt;&lt;b&gt;&lt;i&gt;Definition&lt;/i&gt;&lt;/b&gt;&lt;/div&gt;" style="text;html=1;align=center;verticalAlign=middle;whiteSpace=wrap;rounded=0;" vertex="1" parent="oW3nw7g2kxoqtmV7_x5X-4">
          <mxGeometry x="200" y="110" width="110" height="30" as="geometry" />
        </mxCell>
        <mxCell id="oW3nw7g2kxoqtmV7_x5X-38" style="edgeStyle=orthogonalEdgeStyle;rounded=0;orthogonalLoop=1;jettySize=auto;html=1;fillColor=#dae8fc;strokeColor=#6c8ebf;" edge="1" parent="oW3nw7g2kxoqtmV7_x5X-4">
          <mxGeometry relative="1" as="geometry">
            <mxPoint x="460" y="155" as="sourcePoint" />
            <mxPoint x="886" y="75" as="targetPoint" />
            <Array as="points">
              <mxPoint x="460" y="50" />
              <mxPoint x="887" y="50" />
            </Array>
          </mxGeometry>
        </mxCell>
        <mxCell id="oW3nw7g2kxoqtmV7_x5X-21" value="" style="rounded=1;whiteSpace=wrap;html=1;" vertex="1" parent="oW3nw7g2kxoqtmV7_x5X-4">
          <mxGeometry x="352" y="110" width="108" height="100" as="geometry" />
        </mxCell>
        <mxCell id="oW3nw7g2kxoqtmV7_x5X-6" value="" style="aspect=fixed;sketch=0;html=1;dashed=0;whitespace=wrap;fillColor=#2875E2;strokeColor=#ffffff;points=[[0.005,0.63,0],[0.1,0.2,0],[0.9,0.2,0],[0.5,0,0],[0.995,0.63,0],[0.72,0.99,0],[0.5,1,0],[0.28,0.99,0]];shape=mxgraph.kubernetes.icon2;kubernetesLabel=1;prIcon=api" vertex="1" parent="oW3nw7g2kxoqtmV7_x5X-4">
          <mxGeometry x="350" y="131" width="70.83" height="68" as="geometry" />
        </mxCell>
        <mxCell id="oW3nw7g2kxoqtmV7_x5X-19" value="" style="dashed=0;outlineConnect=0;html=1;align=center;labelPosition=center;verticalLabelPosition=bottom;verticalAlign=top;shape=mxgraph.weblogos.java" vertex="1" parent="oW3nw7g2kxoqtmV7_x5X-4">
          <mxGeometry x="420.83" y="131" width="34.4" height="65" as="geometry" />
        </mxCell>
        <mxCell id="oW3nw7g2kxoqtmV7_x5X-22" style="edgeStyle=orthogonalEdgeStyle;rounded=0;orthogonalLoop=1;jettySize=auto;html=1;entryX=0.005;entryY=0.63;entryDx=0;entryDy=0;entryPerimeter=0;" edge="1" parent="oW3nw7g2kxoqtmV7_x5X-4" source="oW3nw7g2kxoqtmV7_x5X-17" target="oW3nw7g2kxoqtmV7_x5X-6">
          <mxGeometry relative="1" as="geometry" />
        </mxCell>
        <mxCell id="oW3nw7g2kxoqtmV7_x5X-26" value="&lt;b&gt;Scaling verti&lt;span style=&quot;color: rgba(0, 0, 0, 0); font-family: monospace; font-size: 0px; text-align: start; text-wrap: nowrap;&quot;&gt;%3CmxGraphModel%3E%3Croot%3E%3CmxCell%20id%3D%220%22%2F%3E%3CmxCell%20id%3D%221%22%20parent%3D%220%22%2F%3E%3CmxCell%20id%3D%222%22%20value%3D%22ECS%26amp%3Bnbsp%3B%22%20style%3D%22text%3Bhtml%3D1%3Balign%3Dcenter%3BverticalAlign%3Dmiddle%3BwhiteSpace%3Dwrap%3Brounded%3D0%3B%22%20vertex%3D%221%22%20parent%3D%221%22%3E%3CmxGeometry%20x%3D%22175%22%20y%3D%22490%22%20width%3D%22100%22%20height%3D%2230%22%20as%3D%22geometry%22%2F%3E%3C%2FmxCell%3E%3C%2Froot%3E%3C%2FmxGraphModel%3E&lt;/span&gt;cal&lt;/b&gt;" style="rounded=1;whiteSpace=wrap;html=1;" vertex="1" parent="oW3nw7g2kxoqtmV7_x5X-4">
          <mxGeometry x="495" y="110" width="120" height="30" as="geometry" />
        </mxCell>
        <mxCell id="oW3nw7g2kxoqtmV7_x5X-27" value="&lt;b&gt;Scaling horizontal&lt;span style=&quot;color: rgba(0, 0, 0, 0); font-family: monospace; font-size: 0px; text-align: start; text-wrap: nowrap;&quot;&gt;%3CmxGraphModel%3E%3Croot%3E%3CmxCell%20id%3D%220%22%2F%3E%3CmxCell%20id%3D%221%22%20parent%3D%220%22%2F%3E%3CmxCell%20id%3D%222%22%20value%3D%22ECS%26amp%3Bnbsp%3B%22%20style%3D%22text%3Bhtml%3D1%3Balign%3Dcenter%3BverticalAlign%3Dmiddle%3BwhiteSpace%3Dwrap%3Brounded%3D0%3B%22%20vertex%3D%221%22%20parent%3D%221%22%3E%3CmxGeometry%20x%3D%22175%22%20y%3D%22490%22%20width%3D%22100%22%20height%3D%2230%22%20as%3D%22geometry%22%2F%3E%3C%2FmxCell%3E%3C%2Froot%3E%3C%2FmxGraphMod&lt;/span&gt;&lt;/b&gt;" style="rounded=1;whiteSpace=wrap;html=1;" vertex="1" parent="oW3nw7g2kxoqtmV7_x5X-4">
          <mxGeometry x="495" y="145" width="120" height="25" as="geometry" />
        </mxCell>
        <mxCell id="oW3nw7g2kxoqtmV7_x5X-36" value="" style="outlineConnect=0;dashed=0;verticalLabelPosition=bottom;verticalAlign=top;align=center;html=1;shape=mxgraph.aws3.dynamo_db;fillColor=#2E73B8;gradientColor=none;" vertex="1" parent="oW3nw7g2kxoqtmV7_x5X-4">
          <mxGeometry x="850" y="-1" width="72" height="81" as="geometry" />
        </mxCell>
        <mxCell id="oW3nw7g2kxoqtmV7_x5X-37" value="&lt;b&gt;&lt;i&gt;DynamoDB&lt;/i&gt;&lt;/b&gt;" style="text;html=1;align=center;verticalAlign=middle;whiteSpace=wrap;rounded=0;" vertex="1" parent="oW3nw7g2kxoqtmV7_x5X-4">
          <mxGeometry x="856" y="80" width="60" height="30" as="geometry" />
        </mxCell>
        <mxCell id="oW3nw7g2kxoqtmV7_x5X-48" style="edgeStyle=orthogonalEdgeStyle;rounded=0;orthogonalLoop=1;jettySize=auto;html=1;fillColor=#dae8fc;strokeColor=#6c8ebf;" edge="1" parent="oW3nw7g2kxoqtmV7_x5X-4" source="oW3nw7g2kxoqtmV7_x5X-42" target="oW3nw7g2kxoqtmV7_x5X-46">
          <mxGeometry relative="1" as="geometry" />
        </mxCell>
        <mxCell id="oW3nw7g2kxoqtmV7_x5X-42" value="" style="sketch=0;points=[[0,0,0],[0.25,0,0],[0.5,0,0],[0.75,0,0],[1,0,0],[0,1,0],[0.25,1,0],[0.5,1,0],[0.75,1,0],[1,1,0],[0,0.25,0],[0,0.5,0],[0,0.75,0],[1,0.25,0],[1,0.5,0],[1,0.75,0]];points=[[0,0,0],[0.25,0,0],[0.5,0,0],[0.75,0,0],[1,0,0],[0,1,0],[0.25,1,0],[0.5,1,0],[0.75,1,0],[1,1,0],[0,0.25,0],[0,0.5,0],[0,0.75,0],[1,0.25,0],[1,0.5,0],[1,0.75,0]];outlineConnect=0;fontColor=#232F3E;fillColor=#E7157B;strokeColor=#ffffff;dashed=0;verticalLabelPosition=bottom;verticalAlign=top;align=center;html=1;fontSize=12;fontStyle=0;aspect=fixed;shape=mxgraph.aws4.resourceIcon;resIcon=mxgraph.aws4.managed_service_for_prometheus;" vertex="1" parent="oW3nw7g2kxoqtmV7_x5X-4">
          <mxGeometry x="495" y="190" width="40" height="40" as="geometry" />
        </mxCell>
        <mxCell id="oW3nw7g2kxoqtmV7_x5X-43" value="&lt;b&gt;Prometheus&lt;/b&gt;" style="text;html=1;align=center;verticalAlign=middle;whiteSpace=wrap;rounded=0;" vertex="1" parent="oW3nw7g2kxoqtmV7_x5X-4">
          <mxGeometry x="485" y="230" width="60" height="30" as="geometry" />
        </mxCell>
        <mxCell id="oW3nw7g2kxoqtmV7_x5X-44" value="Metrics" style="shape=process;whiteSpace=wrap;html=1;backgroundOutline=1;" vertex="1" parent="oW3nw7g2kxoqtmV7_x5X-4">
          <mxGeometry x="361" y="220" width="90" height="40" as="geometry" />
        </mxCell>
        <mxCell id="oW3nw7g2kxoqtmV7_x5X-45" style="edgeStyle=orthogonalEdgeStyle;rounded=0;orthogonalLoop=1;jettySize=auto;html=1;entryX=0;entryY=0.5;entryDx=0;entryDy=0;entryPerimeter=0;fillColor=#dae8fc;strokeColor=#6c8ebf;" edge="1" parent="oW3nw7g2kxoqtmV7_x5X-4" source="oW3nw7g2kxoqtmV7_x5X-44" target="oW3nw7g2kxoqtmV7_x5X-42">
          <mxGeometry relative="1" as="geometry" />
        </mxCell>
        <mxCell id="oW3nw7g2kxoqtmV7_x5X-46" value="" style="image;aspect=fixed;html=1;points=[];align=center;fontSize=12;image=img/lib/azure2/other/Grafana.svg;" vertex="1" parent="oW3nw7g2kxoqtmV7_x5X-4">
          <mxGeometry x="580" y="190" width="51.51" height="40" as="geometry" />
        </mxCell>
        <mxCell id="oW3nw7g2kxoqtmV7_x5X-47" value="&lt;b&gt;Grafana&lt;/b&gt;" style="text;html=1;align=center;verticalAlign=middle;whiteSpace=wrap;rounded=0;" vertex="1" parent="oW3nw7g2kxoqtmV7_x5X-4">
          <mxGeometry x="575" y="230" width="60" height="30" as="geometry" />
        </mxCell>
        <mxCell id="oW3nw7g2kxoqtmV7_x5X-50" value="" style="outlineConnect=0;dashed=0;verticalLabelPosition=bottom;verticalAlign=top;align=center;html=1;shape=mxgraph.aws3.cloudwatch;fillColor=#759C3E;gradientColor=none;" vertex="1" parent="oW3nw7g2kxoqtmV7_x5X-4">
          <mxGeometry x="235" y="190" width="50" height="46.5" as="geometry" />
        </mxCell>
        <mxCell id="oW3nw7g2kxoqtmV7_x5X-51" value="&lt;b&gt;Logs&lt;/b&gt;" style="text;html=1;align=center;verticalAlign=middle;whiteSpace=wrap;rounded=0;" vertex="1" parent="oW3nw7g2kxoqtmV7_x5X-4">
          <mxGeometry x="229" y="230" width="60" height="30" as="geometry" />
        </mxCell>
        <mxCell id="oW3nw7g2kxoqtmV7_x5X-53" style="edgeStyle=orthogonalEdgeStyle;rounded=0;orthogonalLoop=1;jettySize=auto;html=1;entryX=0.75;entryY=0.5;entryDx=0;entryDy=0;entryPerimeter=0;fillColor=#dae8fc;strokeColor=#6c8ebf;" edge="1" parent="oW3nw7g2kxoqtmV7_x5X-4">
          <mxGeometry relative="1" as="geometry">
            <mxPoint x="352" y="190" as="sourcePoint" />
            <mxPoint x="279.5" y="213.25" as="targetPoint" />
            <Array as="points">
              <mxPoint x="322" y="190" />
              <mxPoint x="322" y="213" />
            </Array>
          </mxGeometry>
        </mxCell>
        <mxCell id="oW3nw7g2kxoqtmV7_x5X-29" value="" style="edgeStyle=orthogonalEdgeStyle;rounded=0;orthogonalLoop=1;jettySize=auto;html=1;fillColor=#dae8fc;strokeColor=#6c8ebf;" edge="1" parent="1" source="oW3nw7g2kxoqtmV7_x5X-23" target="oW3nw7g2kxoqtmV7_x5X-28">
          <mxGeometry relative="1" as="geometry">
            <mxPoint x="460" y="290" as="sourcePoint" />
            <mxPoint x="120" y="440" as="targetPoint" />
          </mxGeometry>
        </mxCell>
        <mxCell id="oW3nw7g2kxoqtmV7_x5X-34" style="edgeStyle=orthogonalEdgeStyle;rounded=0;orthogonalLoop=1;jettySize=auto;html=1;fillColor=#dae8fc;strokeColor=#6c8ebf;" edge="1" parent="1">
          <mxGeometry relative="1" as="geometry">
            <mxPoint x="120.5" y="327" as="sourcePoint" />
            <mxPoint x="185" y="371" as="targetPoint" />
          </mxGeometry>
        </mxCell>
        <mxCell id="oW3nw7g2kxoqtmV7_x5X-28" value="" style="outlineConnect=0;dashed=0;verticalLabelPosition=bottom;verticalAlign=top;align=center;html=1;shape=mxgraph.aws3.classic_load_balancer;fillColor=#F58534;gradientColor=none;" vertex="1" parent="1">
          <mxGeometry x="86" y="254" width="69" height="72" as="geometry" />
        </mxCell>
        <mxCell id="oW3nw7g2kxoqtmV7_x5X-31" value="Security group" style="fillColor=none;strokeColor=#DD3522;verticalAlign=top;fontStyle=0;fontColor=#DD3522;whiteSpace=wrap;html=1;" vertex="1" parent="1">
          <mxGeometry x="130" y="370" width="110" height="40" as="geometry" />
        </mxCell>
        <mxCell id="oW3nw7g2kxoqtmV7_x5X-32" value="" style="sketch=0;pointerEvents=1;shadow=0;dashed=0;html=1;strokeColor=none;fillColor=#505050;labelPosition=center;verticalLabelPosition=bottom;verticalAlign=top;outlineConnect=0;align=center;shape=mxgraph.office.users.universal_security_group;" vertex="1" parent="1">
          <mxGeometry x="230" y="362" width="58" height="58" as="geometry" />
        </mxCell>
        <mxCell id="oW3nw7g2kxoqtmV7_x5X-35" style="edgeStyle=orthogonalEdgeStyle;rounded=0;orthogonalLoop=1;jettySize=auto;html=1;" edge="1" parent="1">
          <mxGeometry relative="1" as="geometry">
            <mxPoint x="120" y="439" as="sourcePoint" />
            <mxPoint x="185" y="409" as="targetPoint" />
          </mxGeometry>
        </mxCell>
        <mxCell id="oW3nw7g2kxoqtmV7_x5X-39" value="" style="endArrow=none;dashed=1;html=1;rounded=0;strokeWidth=4;entryX=0.405;entryY=0.004;entryDx=0;entryDy=0;entryPerimeter=0;" edge="1" parent="1" target="oW3nw7g2kxoqtmV7_x5X-9">
          <mxGeometry width="50" height="50" relative="1" as="geometry">
            <mxPoint x="517.0185185185182" y="420" as="sourcePoint" />
            <mxPoint x="533.6666666666665" y="449" as="targetPoint" />
          </mxGeometry>
        </mxCell>
        <mxCell id="oW3nw7g2kxoqtmV7_x5X-40" value="&lt;b&gt;MVP - Provisionamento da infraestrutra, permitindo escalabilidade, disponibilidade e observabilidade.&lt;/b&gt;" style="rounded=1;whiteSpace=wrap;html=1;" vertex="1" parent="1">
          <mxGeometry x="20" y="20" width="1160" height="60" as="geometry" />
        </mxCell>
        <mxCell id="oW3nw7g2kxoqtmV7_x5X-49" value="" style="shape=note;whiteSpace=wrap;html=1;backgroundOutline=1;darkOpacity=0.05;" vertex="1" parent="1">
          <mxGeometry x="50" y="750" width="1110" height="160" as="geometry" />
        </mxCell>
      </root>
    </mxGraphModel>
  </diagram>
</mxfile>
